# xmcd
#
# Track frame offsets:
#	150
#	14868
#	33566
#	56021
#	75223
#	93348
#	107696
#	124639
#	142715
#	157601
#	169425
#	186474
#	203877
#	219812
#	237257
#	254585
#	271886
#
# Disc length: 3866 seconds
#
# Revision: 1
# Processed by: cddbd v1.5.2PL0 Copyright (c) Steve Scherf et al.
# Submitted via: audiograbber 1.83.01
#
DISCID=e30f1811
DTITLE=Keith, Toby - CB5060-02
DYEAR=1900
DGENRE=Karaoke
TTITLE0=I Wanna Talk About Me
TTITLE1=Whiskey Girl
TTITLE2=Who's That Man
TTITLE3=Weed With Willie
TTITLE4=Rock You Baby
TTITLE5=Big Blue Note
TTITLE6=Should've Been A Cowboy
TTITLE7=As Good As I Once Was
TTITLE8=He Aint Worth Missing
TTITLE9=You Aint Much Fun
TTITLE10=Honky Tonk U
TTITLE11=If I Was Jesus
TTITLE12=When Love Fades
TTITLE13=Double Wide Paradise
TTITLE14=Big Ol Truck
TTITLE15=Country Comes To Town
TTITLE16=Aint It Just Like You
EXTD=
EXTT0=
EXTT1=
EXTT2=
EXTT3=
EXTT4=
EXTT5=
EXTT6=
EXTT7=
EXTT8=
EXTT9=
EXTT10=
EXTT11=
EXTT12=
EXTT13=
EXTT14=
EXTT15=
EXTT16=
PLAYORDER=
